<?xml version="1.0" encoding="UTF-8"?>
<svg width="32" height="32" enable-background="new 0 0 16 16" version="1.1" viewBox="0 0 32 32" xml:space="preserve" xmlns="http://www.w3.org/2000/svg">
<g transform="matrix(2 0 0 2 0 -585.57)">
	<circle cx="8" cy="300.78" r="7.5" fill="#2ca089" stroke="#247f6e"/>
		<g transform="scale(.94544 1.0577)">
			<path d="m12.377 281.53c0.01 0.094-0.022 0.178-0.094 0.252-0.074 0.063-0.158 0.094-0.253 0.094h-0.646c-0.126 0-0.221-0.021-0.284-0.063-0.063-0.053-0.131-0.147-0.205-0.283-0.168-0.326-0.462-0.646-0.883-0.962-0.409-0.315-0.955-0.473-1.638-0.473-0.63 0-1.166 0.142-1.607 0.426-0.431 0.283-0.646 0.688-0.646 1.213 0 0.357 0.105 0.651 0.315 0.883 0.221 0.221 0.546 0.415 0.977 0.583 0.441 0.157 1.103 0.352 1.986 0.583 1.197 0.315 2.043 0.704 2.537 1.166 0.504 0.451 0.756 1.071 0.756 1.859 0 0.63-0.179 1.187-0.535 1.669-0.347 0.484-0.841 0.862-1.481 1.136-0.641 0.273-1.382 0.409-2.222 0.409-0.778 0-1.487-0.147-2.127-0.44-0.641-0.295-1.145-0.668-1.513-1.119-0.368-0.463-0.562-0.92-0.583-1.371 0-0.095 0.032-0.174 0.095-0.236 0.073-0.073 0.158-0.11 0.252-0.11h0.646c0.116 0 0.21 0.026 0.284 0.078 0.074 0.042 0.142 0.132 0.205 0.269 0.168 0.378 0.473 0.725 0.914 1.04 0.452 0.315 1.061 0.473 1.828 0.473 0.766 0 1.413-0.162 1.937-0.488 0.537-0.336 0.804-0.772 0.804-1.307 0-0.347-0.14-0.635-0.425-0.867-0.274-0.242-0.652-0.441-1.135-0.599-0.483-0.168-1.192-0.373-2.127-0.614-1.019-0.263-1.754-0.641-2.206-1.135-0.451-0.504-0.678-1.124-0.678-1.859 0-0.546 0.142-1.05 0.426-1.512 0.284-0.463 0.709-0.835 1.277-1.119 0.567-0.283 1.25-0.426 2.048-0.426s1.498 0.158 2.096 0.473c0.598 0.305 1.061 0.683 1.387 1.135 0.323 0.449 0.497 0.864 0.518 1.242z" fill="#fea"/>
		</g>
			<path d="m4.915 302.29c0.053 0.054 0.08 0.123 0.08 0.208 0 0.17-0.085 0.256-0.256 0.256h-0.592c-0.149 0-0.272-0.021-0.368-0.064-0.085-0.042-0.187-0.111-0.304-0.207l-1.776-1.457c-0.053-0.053-0.08-0.117-0.08-0.192 0-0.096 0.026-0.171 0.08-0.224 0.054-0.064 0.128-0.096 0.224-0.096h1.184c0.128 0 0.229 0.021 0.304 0.063 0.075 0.032 0.17 0.112 0.288 0.24z" fill="#fea"/>
</g>
</svg>
